<mxfile host="app.diagrams.net" modified="2023-09-03T23:40:34.217Z" agent="Mozilla/5.0 (Windows NT 10.0; Win64; x64; rv:109.0) Gecko/20100101 Firefox/117.0" etag="94LjItXm2XKjT2Mny4ek" version="21.6.8" type="github">
  <diagram id="C5RBs43oDa-KdzZeNtuy" name="Page-1">
    <mxGraphModel dx="2427" dy="789" grid="1" gridSize="10" guides="1" tooltips="1" connect="1" arrows="1" fold="1" page="1" pageScale="1" pageWidth="827" pageHeight="1169" math="0" shadow="0">
      <root>
        <object label="" dawdwa="dawdwad" grgrdgrd="gdrgrdg" fesfesf="regerge" id="WIyWlLk6GJQsqaUBKTNV-0">
          <mxCell />
        </object>
        <mxCell id="WIyWlLk6GJQsqaUBKTNV-1" parent="WIyWlLk6GJQsqaUBKTNV-0" />
        <mxCell id="a481yiPgKqfhCZ4eKlHy-12" value="&lt;div&gt;&amp;lt;&amp;lt;Abstract&amp;gt;&amp;gt;&lt;/div&gt;&lt;div&gt;Itens Multimídia&lt;br&gt;&lt;/div&gt;" style="swimlane;align=center;verticalAlign=top;childLayout=stackLayout;horizontal=1;startSize=40;horizontalStack=0;resizeParent=1;resizeParentMax=0;resizeLast=0;collapsible=1;marginBottom=0;whiteSpace=wrap;html=1;" vertex="1" parent="WIyWlLk6GJQsqaUBKTNV-1">
          <mxGeometry x="300" y="50" width="190" height="184" as="geometry">
            <mxRectangle x="330" y="90" width="130" height="30" as="alternateBounds" />
          </mxGeometry>
        </mxCell>
        <mxCell id="a481yiPgKqfhCZ4eKlHy-13" value="- título: String&#xa;- autor: String&#xa;- editora: String&#xa;- ano de publicação: Date&#xa;- gênero: String&#xa;- sinopse: String&#xa;- capa: String" style="text;strokeColor=none;fillColor=none;align=left;verticalAlign=top;spacingLeft=4;spacingRight=4;overflow=hidden;rotatable=0;points=[[0,0.5],[1,0.5]];portConstraint=eastwest;whiteSpace=wrap;html=1;" vertex="1" parent="a481yiPgKqfhCZ4eKlHy-12">
          <mxGeometry y="40" width="190" height="114" as="geometry" />
        </mxCell>
        <mxCell id="a481yiPgKqfhCZ4eKlHy-14" value="" style="line;strokeWidth=1;fillColor=none;align=left;verticalAlign=middle;spacingTop=-1;spacingLeft=3;spacingRight=3;rotatable=0;labelPosition=right;points=[];portConstraint=eastwest;strokeColor=inherit;" vertex="1" parent="a481yiPgKqfhCZ4eKlHy-12">
          <mxGeometry y="154" width="190" height="8" as="geometry" />
        </mxCell>
        <mxCell id="a481yiPgKqfhCZ4eKlHy-15" value="+ EstaDisponivel" style="text;strokeColor=none;fillColor=none;align=left;verticalAlign=top;spacingLeft=4;spacingRight=4;overflow=hidden;rotatable=0;points=[[0,0.5],[1,0.5]];portConstraint=eastwest;whiteSpace=wrap;html=1;" vertex="1" parent="a481yiPgKqfhCZ4eKlHy-12">
          <mxGeometry y="162" width="190" height="22" as="geometry" />
        </mxCell>
        <mxCell id="a481yiPgKqfhCZ4eKlHy-29" value="Livro Físico" style="swimlane;fontStyle=0;childLayout=stackLayout;horizontal=1;startSize=26;fillColor=none;horizontalStack=0;resizeParent=1;resizeParentMax=0;resizeLast=0;collapsible=1;marginBottom=0;whiteSpace=wrap;html=1;" vertex="1" parent="WIyWlLk6GJQsqaUBKTNV-1">
          <mxGeometry x="-210" y="360" width="230" height="136" as="geometry" />
        </mxCell>
        <mxCell id="a481yiPgKqfhCZ4eKlHy-33" value="– ISBN: String&#xa;– Edição: String&#xa;– Número total de cópias por edição: int&#xa;– Número de cópias disponíveis: int&#xa;– Localização: String&#xa;– Estado de conservação: string" style="text;whiteSpace=wrap;" vertex="1" parent="a481yiPgKqfhCZ4eKlHy-29">
          <mxGeometry y="26" width="230" height="110" as="geometry" />
        </mxCell>
        <mxCell id="a481yiPgKqfhCZ4eKlHy-37" value="" style="edgeStyle=none;orthogonalLoop=1;jettySize=auto;html=1;rounded=0;" edge="1" parent="WIyWlLk6GJQsqaUBKTNV-1">
          <mxGeometry width="80" relative="1" as="geometry">
            <mxPoint x="-80" y="360" as="sourcePoint" />
            <mxPoint x="400" y="240" as="targetPoint" />
            <Array as="points">
              <mxPoint x="-80" y="360" />
              <mxPoint x="-80" y="280" />
              <mxPoint x="400" y="280" />
            </Array>
          </mxGeometry>
        </mxCell>
        <mxCell id="a481yiPgKqfhCZ4eKlHy-40" value="Livro Eletrônico" style="swimlane;fontStyle=0;childLayout=stackLayout;horizontal=1;startSize=26;fillColor=none;horizontalStack=0;resizeParent=1;resizeParentMax=0;resizeLast=0;collapsible=1;marginBottom=0;whiteSpace=wrap;html=1;" vertex="1" parent="WIyWlLk6GJQsqaUBKTNV-1">
          <mxGeometry x="110" y="360" width="230" height="140" as="geometry" />
        </mxCell>
        <mxCell id="a481yiPgKqfhCZ4eKlHy-41" value="– Formato: String&#xa;– Número total de licenças: int&#xa;– Formato de arquivo: String&#xa;– URL de acesso: String&#xa;– Requisitos de leitura: String&#xa;– Data de disponibilidade: Date" style="text;strokeColor=none;fillColor=none;align=left;verticalAlign=top;spacingLeft=4;spacingRight=4;overflow=hidden;rotatable=0;points=[[0,0.5],[1,0.5]];portConstraint=eastwest;whiteSpace=wrap;html=1;" vertex="1" parent="a481yiPgKqfhCZ4eKlHy-40">
          <mxGeometry y="26" width="230" height="114" as="geometry" />
        </mxCell>
        <mxCell id="a481yiPgKqfhCZ4eKlHy-50" value="" style="endArrow=none;html=1;rounded=0;" edge="1" parent="WIyWlLk6GJQsqaUBKTNV-1">
          <mxGeometry width="50" height="50" relative="1" as="geometry">
            <mxPoint x="220" y="360" as="sourcePoint" />
            <mxPoint x="220" y="280" as="targetPoint" />
            <Array as="points">
              <mxPoint x="220" y="320" />
            </Array>
          </mxGeometry>
        </mxCell>
        <mxCell id="a481yiPgKqfhCZ4eKlHy-51" style="edgeStyle=none;rounded=0;orthogonalLoop=1;jettySize=auto;html=1;entryX=0.461;entryY=-0.007;entryDx=0;entryDy=0;entryPerimeter=0;" edge="1" parent="WIyWlLk6GJQsqaUBKTNV-1" source="a481yiPgKqfhCZ4eKlHy-40" target="a481yiPgKqfhCZ4eKlHy-40">
          <mxGeometry relative="1" as="geometry" />
        </mxCell>
        <mxCell id="a481yiPgKqfhCZ4eKlHy-52" value="Cd de Áudio" style="swimlane;fontStyle=0;childLayout=stackLayout;horizontal=1;startSize=26;fillColor=none;horizontalStack=0;resizeParent=1;resizeParentMax=0;resizeLast=0;collapsible=1;marginBottom=0;whiteSpace=wrap;html=1;" vertex="1" parent="WIyWlLk6GJQsqaUBKTNV-1">
          <mxGeometry x="420" y="360" width="230" height="130" as="geometry" />
        </mxCell>
        <mxCell id="a481yiPgKqfhCZ4eKlHy-53" value="– Lista de Faixas: String&#xa;– Duração Total: Date&#xa;– Número total de cópias: int&#xa;– Número de cópias disponíveis: int&#xa;– Estado de conservação: String" style="text;strokeColor=none;fillColor=none;align=left;verticalAlign=top;spacingLeft=4;spacingRight=4;overflow=hidden;rotatable=0;points=[[0,0.5],[1,0.5]];portConstraint=eastwest;whiteSpace=wrap;html=1;" vertex="1" parent="a481yiPgKqfhCZ4eKlHy-52">
          <mxGeometry y="26" width="230" height="104" as="geometry" />
        </mxCell>
        <mxCell id="a481yiPgKqfhCZ4eKlHy-59" value="" style="endArrow=none;html=1;rounded=0;entryX=0.5;entryY=0;entryDx=0;entryDy=0;" edge="1" parent="WIyWlLk6GJQsqaUBKTNV-1" target="a481yiPgKqfhCZ4eKlHy-52">
          <mxGeometry width="50" height="50" relative="1" as="geometry">
            <mxPoint x="400" y="280" as="sourcePoint" />
            <mxPoint x="530" y="360" as="targetPoint" />
            <Array as="points">
              <mxPoint x="535" y="280" />
            </Array>
          </mxGeometry>
        </mxCell>
        <mxCell id="a481yiPgKqfhCZ4eKlHy-60" value="DVD de Vídeo" style="swimlane;fontStyle=0;childLayout=stackLayout;horizontal=1;startSize=26;fillColor=none;horizontalStack=0;resizeParent=1;resizeParentMax=0;resizeLast=0;collapsible=1;marginBottom=0;whiteSpace=wrap;html=1;" vertex="1" parent="WIyWlLk6GJQsqaUBKTNV-1">
          <mxGeometry x="760" y="360" width="240" height="130" as="geometry" />
        </mxCell>
        <mxCell id="a481yiPgKqfhCZ4eKlHy-61" value="– Elenco: String&#xa;– Duração: Time&#xa;– Número total de cópias: int&#xa;– Número de cópias disponíveis: int&#xa;– Legendas e Áudio Disponíveis: Boolean&#xa;– Estado de conservação: String" style="text;strokeColor=none;fillColor=none;align=left;verticalAlign=top;spacingLeft=4;spacingRight=4;overflow=hidden;rotatable=0;points=[[0,0.5],[1,0.5]];portConstraint=eastwest;whiteSpace=wrap;html=1;" vertex="1" parent="a481yiPgKqfhCZ4eKlHy-60">
          <mxGeometry y="26" width="240" height="104" as="geometry" />
        </mxCell>
        <mxCell id="a481yiPgKqfhCZ4eKlHy-64" value="" style="endArrow=none;html=1;rounded=0;exitX=0.5;exitY=0;exitDx=0;exitDy=0;" edge="1" parent="WIyWlLk6GJQsqaUBKTNV-1" source="a481yiPgKqfhCZ4eKlHy-60">
          <mxGeometry width="50" height="50" relative="1" as="geometry">
            <mxPoint x="820" y="380" as="sourcePoint" />
            <mxPoint x="530" y="280" as="targetPoint" />
            <Array as="points">
              <mxPoint x="880" y="280" />
            </Array>
          </mxGeometry>
        </mxCell>
      </root>
    </mxGraphModel>
  </diagram>
</mxfile>
